<?xml version="1.0" encoding="UTF-8"?>
<!DOCTYPE svg PUBLIC "-//W3C//DTD SVG 1.1//EN" "http://www.w3.org/Graphics/SVG/1.1/DTD/svg11.dtd">
<!-- Creator: CorelDRAW 2019 (64-Bit) -->
<svg xmlns="http://www.w3.org/2000/svg" xml:space="preserve" width="530mm" height="170mm" version="1.1" style="shape-rendering:geometricPrecision; text-rendering:geometricPrecision; image-rendering:optimizeQuality; fill-rule:evenodd; clip-rule:evenodd"
viewBox="0 0 5300 1700"
 xmlns:xlink="http://www.w3.org/1999/xlink">
 <defs>
  <style type="text/css">
   <![CDATA[
    .fil2 {fill:#005267}
    .fil0 {fill:#A4BB11}
    .fil1 {fill:#E5A811}
    .fil3 {fill:#005267;fill-rule:nonzero}
   ]]>
  </style>
 </defs>
 <g id="Layer_x0020_1">
  <metadata id="CorelCorpID_0Corel-Layer"/>
  <path class="fil0" d="M840.161 859.915l-160.939 -169.239c-49.922,-52.491 -93.37,-157.715 -93.99,-238.573l-5.039 -428.757 393.366 0.11c6.523,165.125 -11.245,521.431 35.392,589.063 11.455,16.612 23.341,30.775 35.681,42.926 12.151,12.339 26.314,24.226 42.926,35.681 67.631,46.637 423.938,28.869 589.062,35.391l0.111 393.366 -428.757 -5.039c-80.859,-0.62 -186.082,-44.067 -238.574,-93.99l-169.239 -160.939z"/>
  <circle class="fil1" transform="matrix(1.35406 1.35406 -1.35406 1.35406 1282.04 408.856)" r="104.246"/>
  <path class="fil2" d="M172.262 1248.386l245.103 -247.115 -188.387 -188.472 -216.943 -220.449 278.78 -278.115 235.316 238.907c105.21,105.21 41.965,288.443 7.64,322.566l-34.762 34.556c-22.772,22.64 -6.218,69.668 10.761,86.657l43.098 43.111 44.503 44.38 0.017 -0.018 6.279 6.297 6.298 6.279 -0.019 0.017 44.38 44.503 43.111 43.098c16.989,16.979 64.016,33.533 86.657,10.763l34.556 -34.763c34.122,-34.326 217.356,-97.571 322.566,7.639l238.907 235.316 -278.115 278.781 -220.45 -216.943 -188.471 -188.388 -247.115 245.103 -273.71 -273.71z"/>
  <path class="fil3" d="M4910.75 1307.032l0 -501.234 122.304 0 0 53.554c16.847,-22.635 32.381,-37.92 46.494,-45.853 18.925,-10.734 40.038,-16.101 63.12,-16.101 45.508,0 80.624,18.551 105.566,55.77 24.833,37.219 37.304,83.306 37.304,138.026 0,60.554 -13.565,106.757 -40.695,138.61 -27.129,31.852 -61.37,47.72 -102.831,47.72 -20.129,0 -38.398,-3.617 -54.917,-10.851 -16.628,-7.351 -31.396,-18.085 -44.414,-32.436l0 172.795 -131.931 0zm131.103 -318.405c0,28.936 5.261,50.287 15.682,64.288 10.421,14.001 23.674,21.001 39.659,21.001 13.962,0 25.698,-6.65 35.208,-20.068 9.409,-13.417 14.164,-36.169 14.164,-68.254 0,-29.636 -4.957,-51.337 -14.771,-65.221 -9.915,-13.885 -21.853,-20.768 -36.119,-20.768 -15.378,0 -28.125,7 -38.445,21.001 -10.218,14.001 -15.378,36.636 -15.378,68.021z"/>
  <path class="fil3" d="M4512.58 988.511c0,-55.538 16.188,-101.274 48.563,-137.21 32.374,-35.936 76.081,-53.903 131.118,-53.903 63.03,0 110.581,21.118 142.754,63.354 25.798,34.069 38.748,75.955 38.748,125.658 0,56.004 -15.985,101.741 -48.056,137.56 -32.072,35.702 -76.486,53.554 -133.142,53.554 -50.486,0 -91.358,-14.818 -122.52,-44.57 -38.344,-36.753 -57.465,-84.939 -57.465,-144.443zm129.438 -1.264c0,29.846 4.872,51.882 14.615,66.11 9.743,14.228 21.923,21.395 36.712,21.395 14.876,0 27.056,-7.06 36.624,-21.074 9.571,-14.013 14.355,-36.585 14.355,-67.607 0,-28.99 -4.784,-50.492 -14.441,-64.719 -9.656,-14.12 -21.575,-21.181 -35.842,-21.181 -15.05,0 -27.49,7.167 -37.321,21.502 -9.83,14.441 -14.702,36.263 -14.702,65.574z"/>
  <path class="fil3" d="M2722.197 1017.454l-239.258 0c2.465,24.685 24.881,55.249 51.733,55.249 34.308,0 42.601,-20.092 54.533,-36.825l136.003 0c-12.392,49.905 -27.945,88.258 -75.993,117.816 -25.722,15.823 -72.981,23.664 -121.038,23.664 -41.784,0 -76.545,-6.653 -100.533,-20.28 -23.863,-13.556 -50.828,-43.907 -66.545,-73.458 -15.745,-29.601 -23.573,-64.405 -23.573,-104.307 0,-56.821 15.81,-102.882 47.348,-138.027 31.492,-35.093 87.418,-52.736 142.961,-52.736 68.961,0 142.765,25.301 173.483,92.613 13.636,29.878 19.354,68.853 20.438,116.792l0.441 19.499zm-186.518 -127.282c-36.721,0 -50.811,22.463 -53.729,45.202l53.729 0 53.729 0c-2.918,-22.739 -17.008,-45.202 -53.729,-45.202z"/>
  <path class="fil3" d="M2011.472 1482.74l-20.461 0 -48.409 -57.297c-1.79,-2.177 -2.923,-3.61 -3.311,-4.385l-0.357 0 0 61.682 -14.675 0 0 -125.273 14.675 0 0 58.879 0.357 0c0.806,-1.283 1.909,-2.715 3.311,-4.265l46.828 -54.614 18.284 0 -53.747 60.102 57.505 65.171zm89.795 -41.161l-63.172 0c0.238,9.992 2.923,17.717 8.053,23.146 5.13,5.458 12.17,8.172 21.147,8.172 10.081,0 19.328,-3.341 27.799,-10.022l0 13.452c-7.875,5.696 -18.284,8.56 -31.199,8.56 -12.646,0 -22.579,-4.056 -29.797,-12.199 -7.248,-8.143 -10.857,-19.596 -10.857,-34.331 0,-13.958 3.968,-25.292 11.841,-34.092 7.904,-8.768 17.717,-13.153 29.41,-13.153 11.722,0 20.759,3.788 27.172,11.364 6.412,7.576 9.603,18.105 9.603,31.587l0 7.516zm-14.674 -12.169c-0.06,-8.292 -2.058,-14.764 -5.965,-19.387 -3.938,-4.624 -9.396,-6.92 -16.405,-6.92 -6.741,0 -12.498,2.416 -17.21,7.277 -4.713,4.862 -7.635,11.185 -8.739,19.03l48.319 0zm166.659 53.33l-14.316 0 0 -51.451c0,-9.932 -1.552,-17.091 -4.594,-21.535 -3.073,-4.444 -8.202,-6.651 -15.42,-6.651 -6.115,0 -11.334,2.803 -15.599,8.411 -4.296,5.577 -6.444,12.289 -6.444,20.132l0 51.094 -14.316 0 0 -53.211c0,-17.628 -6.8,-26.426 -20.372,-26.426 -6.293,0 -11.453,2.654 -15.539,7.933 -4.087,5.28 -6.115,12.14 -6.115,20.61l0 51.094 -14.347 0 0 -89.48 14.347 0 0 14.048 0.358 0c6.323,-10.797 15.599,-16.196 27.769,-16.196 6.114,0 11.453,1.7 15.987,5.1 4.563,3.401 7.665,7.845 9.365,13.363 6.622,-12.319 16.524,-18.463 29.708,-18.463 19.685,0 29.528,12.14 29.528,36.448l0 55.18zm102.233 -41.161l-63.172 0c0.238,9.992 2.922,17.717 8.053,23.146 5.13,5.458 12.169,8.172 21.147,8.172 10.081,0 19.328,-3.341 27.799,-10.022l0 13.452c-7.875,5.696 -18.284,8.56 -31.199,8.56 -12.647,0 -22.579,-4.056 -29.797,-12.199 -7.248,-8.143 -10.857,-19.596 -10.857,-34.331 0,-13.958 3.967,-25.292 11.841,-34.092 7.904,-8.768 17.717,-13.153 29.409,-13.153 11.722,0 20.76,3.788 27.173,11.364 6.412,7.576 9.603,18.105 9.603,31.587l0 7.516zm-14.675 -12.169c-0.059,-8.292 -2.058,-14.764 -5.964,-19.387 -3.938,-4.624 -9.396,-6.92 -16.406,-6.92 -6.74,0 -12.497,2.416 -17.21,7.277 -4.712,4.862 -7.635,11.185 -8.739,19.03l48.319 0zm113.896 53.33l-14.346 0 0 -51.094c0,-19.028 -6.92,-28.543 -20.789,-28.543 -7.159,0 -13.094,2.684 -17.777,8.082 -4.713,5.399 -7.039,12.23 -7.039,20.461l0 51.094 -14.347 0 0 -89.48 14.347 0 0 14.734 0.358 0c6.741,-11.245 16.524,-16.882 29.35,-16.882 9.782,0 17.269,3.162 22.458,9.485 5.19,6.323 7.785,15.451 7.785,27.411l0 54.732zm71.751 -0.835c-3.37,1.878 -7.844,2.803 -13.363,2.803 -15.688,0 -23.503,-8.739 -23.503,-26.247l0 -53.032 -15.39 0 0 -12.169 15.39 0 0 -21.863 14.317 -4.623 0 26.486 22.549 0 0 12.169 -22.549 0 0 50.556c0,6.025 1.014,10.32 3.072,12.885 2.028,2.566 5.399,3.848 10.142,3.848 3.608,0 6.71,-1.014 9.335,-3.042l0 12.229zm94.269 -40.326l-63.172 0c0.238,9.992 2.923,17.717 8.053,23.146 5.13,5.458 12.169,8.172 21.147,8.172 10.081,0 19.328,-3.341 27.799,-10.022l0 13.452c-7.875,5.696 -18.284,8.56 -31.199,8.56 -12.646,0 -22.579,-4.056 -29.797,-12.199 -7.248,-8.143 -10.857,-19.596 -10.857,-34.331 0,-13.958 3.967,-25.292 11.841,-34.092 7.904,-8.768 17.717,-13.153 29.41,-13.153 11.722,0 20.759,3.788 27.172,11.364 6.412,7.576 9.603,18.105 9.603,31.587l0 7.516zm-14.674 -12.169c-0.06,-8.292 -2.058,-14.764 -5.965,-19.387 -3.938,-4.624 -9.396,-6.92 -16.405,-6.92 -6.741,0 -12.498,2.416 -17.21,7.277 -4.713,4.862 -7.635,11.185 -8.739,19.03l48.319 0zm86.276 -21.655c-2.505,-1.908 -6.115,-2.863 -10.827,-2.863 -6.144,0 -11.245,2.893 -15.361,8.649 -4.086,5.758 -6.144,13.631 -6.144,23.593l0 45.606 -14.347 0 0 -89.48 14.347 0 0 18.462 0.358 0c2.029,-6.323 5.13,-11.244 9.336,-14.764 4.205,-3.549 8.888,-5.309 14.078,-5.309 3.729,0 6.562,0.418 8.56,1.223l0 14.883zm26.116 -37.223c-2.536,0 -4.743,-0.865 -6.532,-2.625 -1.819,-1.73 -2.714,-3.967 -2.714,-6.651 0,-2.654 0.895,-4.892 2.714,-6.682 1.789,-1.759 3.996,-2.654 6.532,-2.654 2.625,0 4.861,0.895 6.711,2.654 1.819,1.79 2.744,4.028 2.744,6.682 0,2.565 -0.925,4.772 -2.744,6.561 -1.85,1.82 -4.086,2.715 -6.711,2.715zm7.009 112.208l-14.347 0 0 -89.48 14.347 0 0 89.48zm96.297 0l-14.346 0 0 -13.87 -0.328 0c-6.234,10.678 -15.42,16.017 -27.53,16.017 -8.919,0 -15.898,-2.356 -20.939,-7.099 -5.04,-4.712 -7.545,-10.976 -7.545,-18.79 0,-16.733 9.842,-26.487 29.527,-29.231l26.815 -3.757c0,-15.272 -6.144,-22.907 -18.433,-22.907 -10.767,0 -20.49,3.698 -29.17,11.095l0 -14.705c8.799,-5.577 18.91,-8.381 30.393,-8.381 21.028,0 31.556,11.126 31.556,33.406l0 58.222zm-14.346 -45.277l-21.565 2.983c-6.651,0.924 -11.662,2.595 -15.032,4.951 -3.371,2.385 -5.071,6.562 -5.071,12.586 0,4.385 1.551,7.965 4.683,10.738 3.102,2.774 7.248,4.176 12.438,4.176 7.098,0 12.974,-2.506 17.597,-7.486 4.653,-5.011 6.95,-11.334 6.95,-19.001l0 -8.947zm118.876 45.277l-14.346 0 0 -51.094c0,-19.028 -6.92,-28.543 -20.789,-28.543 -7.159,0 -13.094,2.684 -17.777,8.082 -4.713,5.399 -7.039,12.23 -7.039,20.461l0 51.094 -14.347 0 0 -89.48 14.347 0 0 14.734 0.358 0c6.741,-11.245 16.524,-16.882 29.35,-16.882 9.782,0 17.269,3.162 22.458,9.485 5.19,6.323 7.785,15.451 7.785,27.411l0 54.732zm168.42 0l-20.461 0 -48.409 -57.297c-1.79,-2.177 -2.923,-3.61 -3.311,-4.385l-0.358 0 0 61.682 -14.674 0 0 -125.273 14.674 0 0 58.879 0.358 0c0.806,-1.283 1.909,-2.715 3.311,-4.265l46.827 -54.614 18.284 0 -53.747 60.102 57.506 65.171zm55.286 2.147c-13.213,0 -23.772,-4.175 -31.676,-12.557 -7.874,-8.351 -11.841,-19.447 -11.841,-33.287 0,-15.032 4.116,-26.784 12.318,-35.254 8.233,-8.441 19.328,-12.677 33.317,-12.677 13.332,0 23.742,4.116 31.229,12.349 7.486,8.202 11.214,19.595 11.214,34.181 0,14.287 -4.027,25.74 -12.08,34.331 -8.083,8.619 -18.909,12.914 -32.481,12.914zm1.044 -81.784c-9.187,0 -16.464,3.131 -21.833,9.425 -5.369,6.293 -8.053,14.943 -8.053,26.009 0,10.618 2.714,19.029 8.142,25.143 5.429,6.145 12.676,9.217 21.744,9.217 9.276,0 16.405,-3.013 21.386,-9.038 4.981,-6.025 7.456,-14.585 7.456,-25.68 0,-11.215 -2.475,-19.865 -7.456,-25.949 -4.981,-6.085 -12.11,-9.127 -21.386,-9.127zm84.367 66.812l-0.357 0 0 53.985 -14.347 0 0 -130.64 14.347 0 0 15.599 0.357 0c7.04,-11.841 17.36,-17.747 30.931,-17.747 11.512,0 20.52,3.997 26.993,12.02 6.472,8.024 9.694,18.762 9.694,32.243 0,14.973 -3.64,26.993 -10.917,36 -7.277,9.008 -17.24,13.512 -29.886,13.512 -11.603,0 -20.521,-4.981 -26.815,-14.972zm-0.357 -36.211l0 12.528c0,7.427 2.386,13.72 7.218,18.91 4.802,5.16 10.886,7.755 18.284,7.755 8.679,0 15.479,-3.341 20.401,-9.992 4.921,-6.682 7.396,-15.927 7.396,-27.798 0,-9.993 -2.296,-17.837 -6.919,-23.504 -4.593,-5.667 -10.827,-8.5 -18.671,-8.5 -8.352,0 -15.033,2.893 -20.104,8.709 -5.07,5.816 -7.605,13.124 -7.605,21.892zm166.002 7.875l-63.173 0c0.238,9.992 2.923,17.717 8.054,23.146 5.129,5.458 12.169,8.172 21.147,8.172 10.081,0 19.327,-3.341 27.798,-10.022l0 13.452c-7.874,5.696 -18.284,8.56 -31.198,8.56 -12.647,0 -22.58,-4.056 -29.798,-12.199 -7.248,-8.143 -10.856,-19.596 -10.856,-34.331 0,-13.958 3.967,-25.292 11.84,-34.092 7.904,-8.768 17.717,-13.153 29.41,-13.153 11.722,0 20.759,3.788 27.172,11.364 6.412,7.576 9.604,18.105 9.604,31.587l0 7.516zm-14.675 -12.169c-0.059,-8.292 -2.058,-14.764 -5.965,-19.387 -3.938,-4.624 -9.396,-6.92 -16.405,-6.92 -6.74,0 -12.498,2.416 -17.21,7.277 -4.713,4.862 -7.635,11.185 -8.739,19.03l48.319 0zm86.276 -21.655c-2.505,-1.908 -6.114,-2.863 -10.827,-2.863 -6.144,0 -11.244,2.893 -15.36,8.649 -4.086,5.758 -6.145,13.631 -6.145,23.593l0 45.606 -14.347 0 0 -89.48 14.347 0 0 18.462 0.358 0c2.029,-6.323 5.131,-11.244 9.336,-14.764 4.205,-3.549 8.889,-5.309 14.079,-5.309 3.728,0 6.561,0.418 8.559,1.223l0 14.883zm82.846 74.985l-14.346 0 0 -13.87 -0.329 0c-6.233,10.678 -15.42,16.017 -27.53,16.017 -8.918,0 -15.897,-2.356 -20.938,-7.099 -5.04,-4.712 -7.545,-10.976 -7.545,-18.79 0,-16.733 9.842,-26.487 29.527,-29.231l26.815 -3.757c0,-15.272 -6.144,-22.907 -18.433,-22.907 -10.767,0 -20.491,3.698 -29.17,11.095l0 -14.705c8.798,-5.577 18.909,-8.381 30.393,-8.381 21.028,0 31.556,11.126 31.556,33.406l0 58.222zm-14.346 -45.277l-21.565 2.983c-6.651,0.924 -11.662,2.595 -15.033,4.951 -3.37,2.385 -5.07,6.562 -5.07,12.586 0,4.385 1.551,7.965 4.683,10.738 3.101,2.774 7.248,4.176 12.438,4.176 7.098,0 12.974,-2.506 17.597,-7.486 4.653,-5.011 6.95,-11.334 6.95,-19.001l0 -8.947zm39.179 42.115l0 -15.271c7.785,5.727 16.405,8.59 25.771,8.59 12.586,0 18.88,-4.236 18.88,-12.676 0,-2.387 -0.537,-4.415 -1.611,-6.085 -1.104,-1.67 -2.535,-3.132 -4.385,-4.414 -1.819,-1.283 -3.996,-2.446 -6.472,-3.461 -2.475,-1.013 -5.13,-2.087 -7.993,-3.191 -3.967,-1.581 -7.427,-3.161 -10.439,-4.772 -2.983,-1.611 -5.489,-3.4 -7.516,-5.429 -1.999,-1.998 -3.52,-4.294 -4.535,-6.859 -1.014,-2.566 -1.521,-5.578 -1.521,-9.008 0,-4.206 0.955,-7.904 2.863,-11.155 1.939,-3.222 4.504,-5.936 7.696,-8.143 3.221,-2.178 6.86,-3.818 10.976,-4.922 4.086,-1.103 8.351,-1.67 12.706,-1.67 7.755,0 14.675,1.343 20.79,3.997l0 14.436c-6.562,-4.295 -14.138,-6.442 -22.699,-6.442 -2.684,0 -5.1,0.298 -7.277,0.924 -2.148,0.626 -3.997,1.492 -5.548,2.595 -1.521,1.104 -2.715,2.446 -3.579,3.997 -0.835,1.55 -1.253,3.281 -1.253,5.16 0,2.326 0.418,4.295 1.253,5.876 0.864,1.55 2.087,2.953 3.728,4.175 1.611,1.223 3.609,2.327 5.936,3.341 2.326,0.984 4.98,2.058 7.963,3.222 3.937,1.521 7.516,3.071 10.648,4.682 3.132,1.611 5.817,3.43 8.053,5.429 2.208,1.998 3.908,4.324 5.101,6.949 1.193,2.625 1.79,5.757 1.79,9.365 0,4.445 -0.984,8.292 -2.924,11.544 -1.968,3.281 -4.563,5.995 -7.814,8.143 -3.281,2.146 -7.039,3.757 -11.275,4.802 -4.265,1.043 -8.708,1.58 -13.392,1.58 -9.186,0 -17.18,-1.76 -23.921,-5.309zm91.914 -109.046c-2.536,0 -4.743,-0.865 -6.532,-2.625 -1.82,-1.73 -2.714,-3.967 -2.714,-6.651 0,-2.654 0.894,-4.892 2.714,-6.682 1.789,-1.759 3.996,-2.654 6.532,-2.654 2.625,0 4.861,0.895 6.711,2.654 1.819,1.79 2.744,4.028 2.744,6.682 0,2.565 -0.925,4.772 -2.744,6.561 -1.85,1.82 -4.086,2.715 -6.711,2.715zm7.009 112.208l-14.347 0 0 -89.48 14.347 0 0 89.48zm173.042 0l-17.479 0 -20.997 -35.136c-1.909,-3.281 -3.759,-6.055 -5.578,-8.351 -1.82,-2.297 -3.668,-4.177 -5.548,-5.637 -1.909,-1.462 -3.937,-2.536 -6.114,-3.192 -2.178,-0.686 -4.653,-1.014 -7.397,-1.014l-12.05 0 0 53.33 -14.675 0 0 -125.273 37.402 0c5.459,0 10.529,0.686 15.152,2.059 4.624,1.372 8.651,3.43 12.051,6.233 3.43,2.805 6.084,6.264 7.993,10.44 1.938,4.175 2.893,9.037 2.893,14.615 0,4.385 -0.656,8.381 -1.968,12.02 -1.313,3.639 -3.162,6.89 -5.578,9.723 -2.416,2.864 -5.339,5.28 -8.739,7.308 -3.43,1.998 -7.248,3.55 -11.513,4.653l0 0.358c2.117,0.924 3.937,1.998 5.488,3.192 1.521,1.193 3.012,2.624 4.384,4.235 1.402,1.64 2.804,3.49 4.177,5.548 1.372,2.088 2.893,4.473 4.563,7.218l23.533 37.671zm-75.163 -112.029l0 45.456 19.924 0c3.669,0 7.069,-0.567 10.171,-1.671 3.131,-1.104 5.816,-2.684 8.083,-4.742 2.267,-2.088 4.056,-4.623 5.339,-7.606 1.282,-3.012 1.909,-6.383 1.909,-10.111 0,-6.711 -2.148,-11.931 -6.502,-15.689 -4.326,-3.758 -10.619,-5.637 -18.821,-5.637l-20.103 0zm163.825 70.868l-63.173 0c0.238,9.992 2.923,17.717 8.053,23.146 5.13,5.458 12.17,8.172 21.148,8.172 10.08,0 19.327,-3.341 27.798,-10.022l0 13.452c-7.874,5.696 -18.284,8.56 -31.198,8.56 -12.647,0 -22.58,-4.056 -29.798,-12.199 -7.248,-8.143 -10.856,-19.596 -10.856,-34.331 0,-13.958 3.967,-25.292 11.84,-34.092 7.904,-8.768 17.717,-13.153 29.41,-13.153 11.722,0 20.759,3.788 27.172,11.364 6.412,7.576 9.604,18.105 9.604,31.587l0 7.516zm-14.675 -12.169c-0.059,-8.292 -2.058,-14.764 -5.965,-19.387 -3.938,-4.624 -9.396,-6.92 -16.405,-6.92 -6.74,0 -12.498,2.416 -17.21,7.277 -4.713,4.862 -7.635,11.185 -8.739,19.03l48.319 0zm54.302 40.505l-0.358 0 0 53.985 -14.347 0 0 -130.64 14.347 0 0 15.599 0.358 0c7.04,-11.841 17.359,-17.747 30.931,-17.747 11.512,0 20.52,3.997 26.993,12.02 6.472,8.024 9.694,18.762 9.694,32.243 0,14.973 -3.64,26.993 -10.917,36 -7.278,9.008 -17.24,13.512 -29.886,13.512 -11.603,0 -20.521,-4.981 -26.815,-14.972zm-0.358 -36.211l0 12.528c0,7.427 2.387,13.72 7.218,18.91 4.803,5.16 10.887,7.755 18.284,7.755 8.68,0 15.48,-3.341 20.402,-9.992 4.921,-6.682 7.396,-15.927 7.396,-27.798 0,-9.993 -2.296,-17.837 -6.92,-23.504 -4.592,-5.667 -10.826,-8.5 -18.67,-8.5 -8.352,0 -15.034,2.893 -20.104,8.709 -5.07,5.816 -7.606,13.124 -7.606,21.892zm166.45 49.036l-14.316 0 0 -14.048 -0.359 0c-5.935,10.797 -15.152,16.195 -27.619,16.195 -21.326,0 -31.974,-12.706 -31.974,-38.118l0 -53.509 14.227 0 0 51.272c0,18.91 7.248,28.365 21.684,28.365 6.98,0 12.736,-2.595 17.27,-7.755 4.503,-5.16 6.771,-11.901 6.771,-20.253l0 -51.629 14.316 0 0 89.48zm46.875 -12.825l-0.357 0 0 12.825 -14.347 0 0 -132.431 14.347 0 0 58.55 0.357 0c7.04,-11.841 17.36,-17.747 30.931,-17.747 11.453,0 20.461,3.997 26.933,12.02 6.502,8.024 9.754,18.762 9.754,32.243 0,14.973 -3.64,26.993 -10.917,36 -7.278,9.008 -17.24,13.512 -29.886,13.512 -11.842,0 -20.759,-4.981 -26.815,-14.972zm-0.357 -36.211l0 12.528c0,7.427 2.386,13.72 7.218,18.91 4.802,5.16 10.886,7.755 18.284,7.755 8.679,0 15.479,-3.341 20.401,-9.992 4.921,-6.682 7.396,-15.927 7.396,-27.798 0,-9.993 -2.296,-17.837 -6.919,-23.504 -4.593,-5.667 -10.827,-8.5 -18.671,-8.5 -8.352,0 -15.033,2.893 -20.104,8.709 -5.07,5.816 -7.605,13.124 -7.605,21.892zm108.437 49.036l-14.347 0 0 -132.431 14.347 0 0 132.431zm39.567 -112.208c-2.536,0 -4.743,-0.865 -6.532,-2.625 -1.819,-1.73 -2.714,-3.967 -2.714,-6.651 0,-2.654 0.895,-4.892 2.714,-6.682 1.789,-1.759 3.996,-2.654 6.532,-2.654 2.625,0 4.861,0.895 6.711,2.654 1.819,1.79 2.744,4.028 2.744,6.682 0,2.565 -0.925,4.772 -2.744,6.561 -1.85,1.82 -4.086,2.715 -6.711,2.715zm7.009 112.208l-14.347 0 0 -89.48 14.347 0 0 89.48zm106.528 0l-20.103 0 -39.491 -42.98 -0.357 0 0 42.98 -14.347 0 0 -132.431 14.347 0 0 83.932 0.357 0 37.553 -40.981 18.79 0 -41.489 43.159 44.74 46.321zm83.532 0l-14.674 0 0 -125.273 14.674 0 0 125.273zm108.557 0l-14.346 0 0 -51.094c0,-19.028 -6.92,-28.543 -20.789,-28.543 -7.159,0 -13.094,2.684 -17.778,8.082 -4.712,5.399 -7.038,12.23 -7.038,20.461l0 51.094 -14.347 0 0 -89.48 14.347 0 0 14.734 0.357 0c6.742,-11.245 16.524,-16.882 29.35,-16.882 9.783,0 17.27,3.162 22.459,9.485 5.19,6.323 7.785,15.451 7.785,27.411l0 54.732zm106.619 0l-14.347 0 0 -15.093 -0.329 0c-6.651,11.483 -16.911,17.24 -30.78,17.24 -11.216,0 -20.223,-3.997 -26.934,-12.02 -6.74,-8.024 -10.111,-18.94 -10.111,-32.779 0,-14.794 3.728,-26.665 11.185,-35.584 7.457,-8.918 17.388,-13.392 29.796,-13.392 12.289,0 21.237,4.802 26.844,14.436l0.329 0 0 -55.239 14.347 0 0 132.431zm-14.347 -40.445l0 -13.243c0,-7.248 -2.387,-13.392 -7.159,-18.404 -4.772,-5.04 -10.826,-7.545 -18.164,-7.545 -8.739,0 -15.63,3.221 -20.64,9.634 -5.011,6.442 -7.516,15.331 -7.516,26.665 0,10.35 2.415,18.522 7.217,24.517 4.803,5.996 11.275,8.978 19.358,8.978 7.994,0 14.466,-2.894 19.447,-8.68 4.981,-5.786 7.457,-13.093 7.457,-21.922zm83.979 42.592c-13.213,0 -23.772,-4.175 -31.676,-12.557 -7.874,-8.351 -11.841,-19.447 -11.841,-33.287 0,-15.032 4.116,-26.784 12.319,-35.254 8.232,-8.441 19.327,-12.677 33.316,-12.677 13.332,0 23.742,4.116 31.229,12.349 7.486,8.202 11.214,19.595 11.214,34.181 0,14.287 -4.027,25.74 -12.08,34.331 -8.083,8.619 -18.909,12.914 -32.481,12.914zm1.044 -81.784c-9.186,0 -16.464,3.131 -21.833,9.425 -5.369,6.293 -8.053,14.943 -8.053,26.009 0,10.618 2.714,19.029 8.142,25.143 5.429,6.145 12.676,9.217 21.744,9.217 9.276,0 16.405,-3.013 21.386,-9.038 4.981,-6.025 7.456,-14.585 7.456,-25.68 0,-11.215 -2.475,-19.865 -7.456,-25.949 -4.981,-6.085 -12.11,-9.127 -21.386,-9.127zm143.961 79.637l-14.346 0 0 -51.094c0,-19.028 -6.92,-28.543 -20.789,-28.543 -7.159,0 -13.094,2.684 -17.778,8.082 -4.712,5.399 -7.038,12.23 -7.038,20.461l0 51.094 -14.347 0 0 -89.48 14.347 0 0 14.734 0.357 0c6.742,-11.245 16.524,-16.882 29.35,-16.882 9.783,0 17.27,3.162 22.459,9.485 5.19,6.323 7.785,15.451 7.785,27.411l0 54.732zm102.144 -41.161l-63.172 0c0.238,9.992 2.922,17.717 8.053,23.146 5.129,5.458 12.169,8.172 21.147,8.172 10.081,0 19.327,-3.341 27.799,-10.022l0 13.452c-7.875,5.696 -18.284,8.56 -31.199,8.56 -12.647,0 -22.58,-4.056 -29.797,-12.199 -7.249,-8.143 -10.857,-19.596 -10.857,-34.331 0,-13.958 3.967,-25.292 11.841,-34.092 7.904,-8.768 17.717,-13.153 29.409,-13.153 11.722,0 20.759,3.788 27.172,11.364 6.413,7.576 9.604,18.105 9.604,31.587l0 7.516zm-14.675 -12.169c-0.059,-8.292 -2.058,-14.764 -5.964,-19.387 -3.938,-4.624 -9.396,-6.92 -16.406,-6.92 -6.74,0 -12.497,2.416 -17.21,7.277 -4.712,4.862 -7.635,11.185 -8.739,19.03l48.319 0zm34.199 50.168l0 -15.271c7.785,5.727 16.405,8.59 25.771,8.59 12.586,0 18.88,-4.236 18.88,-12.676 0,-2.387 -0.537,-4.415 -1.611,-6.085 -1.104,-1.67 -2.535,-3.132 -4.385,-4.414 -1.819,-1.283 -3.996,-2.446 -6.472,-3.461 -2.475,-1.013 -5.13,-2.087 -7.993,-3.191 -3.967,-1.581 -7.427,-3.161 -10.439,-4.772 -2.983,-1.611 -5.488,-3.4 -7.516,-5.429 -1.999,-1.998 -3.52,-4.294 -4.535,-6.859 -1.014,-2.566 -1.521,-5.578 -1.521,-9.008 0,-4.206 0.955,-7.904 2.863,-11.155 1.94,-3.222 4.504,-5.936 7.696,-8.143 3.221,-2.178 6.86,-3.818 10.976,-4.922 4.086,-1.103 8.351,-1.67 12.706,-1.67 7.755,0 14.675,1.343 20.79,3.997l0 14.436c-6.562,-4.295 -14.138,-6.442 -22.699,-6.442 -2.684,0 -5.1,0.298 -7.277,0.924 -2.148,0.626 -3.997,1.492 -5.548,2.595 -1.521,1.104 -2.715,2.446 -3.579,3.997 -0.835,1.55 -1.253,3.281 -1.253,5.16 0,2.326 0.418,4.295 1.253,5.876 0.864,1.55 2.087,2.953 3.728,4.175 1.611,1.223 3.609,2.327 5.936,3.341 2.326,0.984 4.98,2.058 7.963,3.222 3.937,1.521 7.516,3.071 10.648,4.682 3.132,1.611 5.817,3.43 8.053,5.429 2.208,1.998 3.908,4.324 5.101,6.949 1.193,2.625 1.79,5.757 1.79,9.365 0,4.445 -0.984,8.292 -2.924,11.544 -1.968,3.281 -4.563,5.995 -7.814,8.143 -3.281,2.146 -7.039,3.757 -11.274,4.802 -4.266,1.043 -8.709,1.58 -13.393,1.58 -9.186,0 -17.18,-1.76 -23.921,-5.309zm91.914 -109.046c-2.536,0 -4.743,-0.865 -6.532,-2.625 -1.819,-1.73 -2.714,-3.967 -2.714,-6.651 0,-2.654 0.895,-4.892 2.714,-6.682 1.789,-1.759 3.996,-2.654 6.532,-2.654 2.625,0 4.861,0.895 6.711,2.654 1.819,1.79 2.744,4.028 2.744,6.682 0,2.565 -0.925,4.772 -2.744,6.561 -1.85,1.82 -4.086,2.715 -6.711,2.715zm7.009 112.208l-14.347 0 0 -89.48 14.347 0 0 89.48zm96.297 0l-14.346 0 0 -13.87 -0.328 0c-6.234,10.678 -15.42,16.017 -27.53,16.017 -8.919,0 -15.898,-2.356 -20.939,-7.099 -5.04,-4.712 -7.545,-10.976 -7.545,-18.79 0,-16.733 9.842,-26.487 29.528,-29.231l26.814 -3.757c0,-15.272 -6.144,-22.907 -18.433,-22.907 -10.767,0 -20.49,3.698 -29.17,11.095l0 -14.705c8.799,-5.577 18.91,-8.381 30.393,-8.381 21.028,0 31.556,11.126 31.556,33.406l0 58.222zm-14.346 -45.277l-21.565 2.983c-6.651,0.924 -11.662,2.595 -15.032,4.951 -3.371,2.385 -5.07,6.562 -5.07,12.586 0,4.385 1.55,7.965 4.682,10.738 3.102,2.774 7.248,4.176 12.438,4.176 7.098,0 12.974,-2.506 17.597,-7.486 4.653,-5.011 6.95,-11.334 6.95,-19.001l0 -8.947z"/>
  <polygon class="fil3" points="4140.613,662.343 4280.932,661.592 4281.208,923.683 4368.613,796.639 4526.051,796.223 4395.753,960.55 4518.344,1169.123 4379.054,1169.123 4299.396,1044.105 4283.167,1058.232 4282.814,1168.241 4140.613,1169.123 "/>
  <path class="fil3" d="M3733.338 795.111l136.61 0 0 48.105c18.419,-24.982 23.719,-29.97 42.579,-40.658 18.862,-10.689 41.719,-16.094 68.791,-16.094 36.614,0 65.13,11.77 85.878,35.431 20.637,23.541 30.956,60.053 30.956,109.417l0 237.811 -133.144 0 0 -181.931c0,-23.54 -5.759,-55.551 -13.746,-65.278 -7.987,-9.728 -19.195,-14.653 -33.62,-14.653 -15.865,0 -28.876,6.585 -38.722,19.698 -9.903,13.19 -13.104,28.375 -13.104,62.485l0 179.679 -132.478 0 0 -374.012z"/>
  <path class="fil3" d="M2748.21 798.798l118.105 0 0 52.854c16.994,-22.168 34.2,-37.92 51.513,-47.254 17.312,-9.334 38.235,-14 62.769,-14 26.34,0 47.158,5.133 62.558,15.401 15.4,10.267 27.933,25.551 37.705,45.853 19.861,-23.685 37.916,-39.903 54.273,-48.42 16.356,-8.518 36.536,-12.834 60.539,-12.834 35.368,0 62.982,11.55 82.844,34.769 19.861,23.101 29.845,59.387 29.845,108.624l0 228.332 -126.814 0 0 -207.564c0,-16.568 -2.868,-28.819 -8.71,-36.753 -8.39,-12.601 -19.011,-18.901 -31.544,-18.901 -14.87,0 -26.871,5.95 -36.006,17.851 -9.027,11.901 -13.594,31.036 -13.594,57.287l0 188.08 -126.815 0 0 -200.214c0,-15.984 -0.849,-26.835 -2.549,-32.552 -2.656,-9.101 -7.328,-16.451 -14.02,-22.051 -6.585,-5.601 -14.444,-8.401 -23.365,-8.401 -14.551,0 -26.552,6.067 -35.899,18.085 -9.347,12.134 -14.02,31.968 -14.02,59.62l0 185.513 -126.815 0 0 -363.325z"/>
  <polygon class="fil3" points="1921.62,667.889 2060.403,667.889 2062.998,851.34 2196.504,667.889 2375.071,667.889 2203.206,893.244 2382.356,1169.123 2217.142,1169.123 2104.643,988.35 2069.884,1044.435 2070.986,1169.123 1921.62,1169.123 "/>
  <path class="fil3" d="M3713.504 1017.454l-239.258 0c2.465,24.685 24.881,55.249 51.733,55.249 34.308,0 42.601,-20.092 54.533,-36.825l136.003 0c-12.392,49.905 -27.945,88.258 -75.993,117.816 -25.722,15.823 -72.981,23.664 -121.038,23.664 -41.784,0 -76.545,-6.653 -100.533,-20.28 -23.863,-13.556 -50.828,-43.907 -66.545,-73.458 -15.745,-29.601 -23.573,-64.405 -23.573,-104.307 0,-56.821 15.81,-102.882 47.348,-138.027 31.492,-35.093 87.418,-52.736 142.961,-52.736 68.961,0 142.765,25.301 173.483,92.613 13.636,29.878 19.354,68.853 20.438,116.792l0.441 19.499zm-186.518 -127.282c-36.721,0 -50.811,22.463 -53.729,45.202l53.729 0 53.729 0c-2.918,-22.739 -17.008,-45.202 -53.729,-45.202z"/>
 </g>
</svg>
